<svg role="img" aria-hidden="true" version="1.1" xmlns="http://www.w3.org/2000/svg"  viewBox="0 0 2048 1509" preserveAspectRatio="xMidYMid meet" >
<path transform="translate(0,0)" fill="rgb(241,243,237)" d="M 0 0 L 2048 0 L 2048 1509 L 0 1509 L 0 0 z"/>
<path transform="translate(0,0)" fill="rgb(22,24,26)" d="M 1313.56 194.175 C 1321.58 193.686 1326.5 193.985 1333.71 198.217 C 1340.53 202.159 1345.46 208.7 1347.37 216.343 C 1352.12 235.372 1328.93 264.717 1314.06 275.369 C 1313.39 275.848 1301.97 276.909 1299.22 277.597 C 1294.76 281.49 1297.64 291.15 1292.23 299.47 C 1279.31 319.36 1274.27 329.408 1250.68 336.161 C 1249.54 341.222 1248.17 345.54 1246.63 350.482 C 1262.61 371.272 1261.19 391.505 1240.15 408.103 C 1247.83 419.242 1255.28 428.81 1262.67 440.472 C 1285.82 477.002 1301.38 521.503 1305.59 564.429 C 1312.34 633.369 1290.49 708.426 1250.74 764.787 C 1230.93 792.883 1213.23 811.056 1201.64 845.35 C 1196.22 861.395 1188.96 885.942 1187.74 902.723 C 1183.86 956.329 1184.16 978.327 1148.33 1021.46 C 1163.17 1029.69 1184.87 1033.52 1170.36 1053.37 C 1169.88 1072.29 1184.63 1073.75 1170.05 1089.53 C 1169.52 1107.11 1172.99 1103.6 1177.35 1116.12 C 1179.4 1122 1166.69 1129.5 1171.65 1143.12 C 1175.94 1146.9 1178.89 1148.78 1178.13 1154.82 C 1177.49 1159.95 1171.54 1162.88 1170.09 1166.44 C 1167.36 1173.17 1165.28 1179.57 1161.9 1186.12 C 1149.37 1210.14 1130.56 1230.31 1107.46 1244.47 C 1034.76 1289.52 938.157 1265.98 893.072 1193.21 C 888.944 1186.12 872.114 1158.69 873.301 1152.25 C 873.768 1149.72 875.659 1147.09 877.729 1145.62 C 877.761 1145.6 879.064 1144.73 879.136 1144.67 C 882.077 1142.02 880.777 1132.95 880.702 1129.18 C 876.283 1125.99 873.088 1123.56 871.404 1118.16 C 871.732 1115.11 873.596 1113.58 876.015 1111.32 C 881.24 1106.44 880.167 1097.2 880.018 1090.06 C 875.577 1086.96 872.194 1084.12 870.934 1078.59 C 872.998 1068.21 880.518 1077.33 880.368 1053.09 C 860.16 1037.18 887.43 1027.98 900.578 1021.21 C 880.042 1000.29 868.103 973.215 863.46 944.627 C 860.671 927.452 860.804 909.652 858.288 892.252 C 855.628 873.626 850.535 855.43 843.138 838.13 C 823.376 790.846 789.183 759.558 767.121 712.487 C 732.641 638.924 731.24 559.949 759.376 483.862 C 783.664 417.448 833.362 363.418 897.518 333.676 C 958.916 305.669 1027.99 299.286 1093.48 315.567 C 1113.26 320.41 1128.9 326.364 1147.96 333.429 C 1167.33 317.534 1179.48 311.431 1203.84 320.252 C 1210.31 315.343 1213.97 313.897 1221.6 311.446 C 1221.89 293.609 1227.58 286.72 1237.68 272.602 C 1247.5 258.884 1253.81 253.496 1270.83 252.267 C 1273.17 230.559 1291.89 200.587 1313.56 194.175 z"/>
<path transform="translate(0,0)" fill="rgb(200,245,66)" d="M 1004.77 524.393 C 1031.16 521.863 1048.08 525.634 1073.56 530.716 C 1083.8 593.712 1083.76 636.419 1071.45 699.385 C 1060.76 701.338 1053.21 702.633 1042.38 703.592 C 1026.43 706.156 992.426 702.218 976.486 698.846 C 961.64 643.668 966.384 585.992 974.604 530.348 C 985.119 527.482 993.951 525.51 1004.77 524.393 z"/>
<path transform="translate(0,0)" fill="rgb(241,243,237)" d="M 799.873 726.283 C 819.565 732.339 822 744.052 844.34 755.147 C 853.026 795.311 866.535 811.564 908.733 815.099 C 916.214 834.24 923.364 834.979 936.508 849.074 C 968.48 883.359 971.999 936.815 977.849 981.054 C 978.867 988.76 982.374 997.181 979.952 1004.3 C 977.332 1006.76 976.236 1006.04 971.917 1006.34 C 955.783 1007.97 941.934 1010.7 926.016 1013.67 C 881.107 973.805 888.217 941.901 881.632 892.634 C 878.677 870.156 872.614 848.197 863.617 827.388 C 853.671 804.205 838.004 781.309 823.549 760.713 C 815.892 749.803 806.198 737.851 799.873 726.283 z"/>
<path transform="translate(0,0)" fill="rgb(241,243,237)" d="M 1244.85 729.083 C 1245.47 729.808 1245.18 729.629 1245.24 731.01 C 1226.32 764.6 1201.48 785.299 1184.79 823.974 C 1175.27 845.912 1168.82 869.059 1165.64 892.761 C 1158.76 947.149 1167.59 969.729 1122.48 1013.92 C 1107.19 1010.67 1091.76 1008.14 1076.24 1006.36 L 1066.59 1005.29 C 1066.93 994.724 1069.05 979.152 1070.39 968.336 C 1074.97 931.571 1082.09 887.812 1104.3 856.979 C 1116.67 839.789 1126.32 841.165 1136.91 817.909 C 1180.58 815.528 1204.54 789.848 1215.25 749.307 C 1228.03 742.721 1233.3 736.681 1244.85 729.083 z"/>
<path transform="translate(0,0)" fill="rgb(241,243,237)" d="M 1030.22 839.051 C 1031.48 839.103 1030.95 838.976 1032.03 839.392 C 1054.13 847.906 1061.68 848.896 1085.01 843.581 C 1058.91 880.864 1052.64 927.915 1046.01 971.863 C 1044.42 982.449 1042.99 993.239 1042.78 1003.95 L 1021.5 1003.21 L 1004.98 1003.51 C 999.727 962.904 994.326 916.147 980.586 877.375 C 976.77 866.606 968.709 852.629 963.014 842.332 C 984.837 846.144 1009.24 846.807 1030.22 839.051 z"/>
<path transform="translate(0,0)" fill="rgb(241,243,237)" d="M 1136.62 1179.05 L 1138.43 1178.83 C 1138.6 1181.92 1128.52 1195.88 1125.93 1198.82 C 1075.47 1256.11 992.804 1259.15 936.204 1210.63 C 924.737 1199.32 920.367 1194.09 911.681 1180.57 C 979.874 1201.62 1068.82 1201.81 1136.62 1179.05 z"/>
<path transform="translate(0,0)" fill="rgb(241,243,237)" d="M 1013.91 1026.46 C 1056.81 1025.51 1095.33 1029.41 1136.3 1041.81 C 1096.89 1052.62 1072.82 1056.12 1031.36 1057.29 C 993.501 1059.93 946.367 1052.68 909.907 1042.88 C 936.85 1031.2 985.193 1027.69 1013.91 1026.46 z"/>
<path transform="translate(0,0)" fill="rgb(241,243,237)" d="M 1145.14 1137.1 C 1147.22 1138.9 1146.52 1147.16 1146.49 1150.05 C 1144.12 1151.33 1141.7 1152.53 1139.24 1153.66 C 1128.22 1158.73 1112.16 1162.87 1100.25 1165.49 C 1039.26 1178.89 967.401 1176.64 908.547 1155.09 C 906.229 1154.03 906.008 1153.79 904.041 1152.32 C 902.109 1148.52 902.902 1143.91 903.111 1139.44 C 982.317 1162.07 1066.38 1161.26 1145.14 1137.1 z"/>
<path transform="translate(0,0)" fill="rgb(241,243,237)" d="M 1145.77 1099.19 C 1146.84 1102.07 1146.51 1110.03 1146.51 1113.5 C 1096.44 1134.22 1015.91 1136.15 962.487 1129.29 C 944.389 1126.97 923.007 1121.39 905.243 1116.58 L 903.474 1115.33 C 902.383 1110.76 903.313 1105.07 903.784 1100.26 C 959.527 1117.92 1035.73 1120.18 1093.53 1111.62 C 1110.35 1109.13 1129.28 1103.83 1145.77 1099.19 z"/>
<path transform="translate(0,0)" fill="rgb(241,243,237)" d="M 1145.03 1062.17 L 1145.44 1062.52 C 1146.84 1065.63 1145.99 1071.32 1145.76 1075.02 C 1081.22 1101.19 971.961 1099.74 906.315 1077.14 C 901.632 1074.8 902.951 1065.34 905.184 1065.42 C 908.779 1065.55 923.28 1069.72 927.531 1070.65 C 940.651 1073.48 953.904 1075.65 967.24 1077.16 C 1025.25 1083.77 1089.25 1079.8 1145.03 1062.17 z"/>
<path transform="translate(0,0)" fill="rgb(200,245,66)" d="M 942.342 540.378 C 949.968 538.649 948.779 540.834 947.685 547.978 C 944.639 567.88 944.242 587.882 942.798 607.93 C 927.202 602.796 917.053 599.022 900.234 600.714 C 887.415 597.367 880.7 568.635 891.478 556.743 C 907.402 539.174 920.265 543.399 942.342 540.378 z"/>
<path transform="translate(0,0)" fill="rgb(200,245,66)" d="M 1099.25 539.032 C 1113.87 540.407 1139.49 541.766 1150.76 551.268 C 1167.86 565.684 1164.84 583.52 1151.82 599.335 C 1151.24 599.983 1149.93 601.464 1148.99 601.363 C 1138.83 600.271 1130.85 599.991 1120.68 602.404 C 1115.48 603.645 1110.32 604.997 1105.18 606.46 C 1104.78 588.081 1103.43 569.735 1101.13 551.496 C 1100.61 547.436 1099.89 543.099 1099.25 539.032 z"/>
<path transform="translate(0,0)" fill="rgb(200,245,66)" d="M 1023.1 453.291 C 1052.54 453.203 1061.24 479.746 1067.87 503.765 C 1055.4 501.432 1044.21 499.467 1031.52 498.94 C 1012.17 498.387 1000.88 499.218 982.024 502.386 C 989.772 477.638 994.323 457.246 1023.1 453.291 z"/>
<path transform="translate(0,0)" fill="rgb(200,245,66)" d="M 911.601 629.307 C 923.344 630.446 933.177 633.222 943.535 639.106 C 944.726 655.644 947.017 671.63 949.839 687.971 C 945.543 686.477 938.937 684.494 934.503 683.943 C 932.347 683.68 930.196 683.38 928.051 683.044 C 920.774 683.524 913.72 684.738 906.382 685.45 C 892.213 677.332 884.289 669.027 886.674 651.431 C 888.598 637.239 898.369 631.439 911.601 629.307 z"/>
<path transform="translate(0,0)" fill="rgb(200,245,66)" d="M 1064.73 387.241 C 1097.82 385.287 1115.21 399.882 1106.05 433.49 C 1099.5 435.195 1092.49 436.828 1085.79 437.816 C 1079.9 439.046 1073.97 440.129 1068.02 441.065 C 1057.22 431.62 1055.7 430.302 1042.22 425.455 C 1042 405.077 1041.18 392.919 1064.73 387.241 z"/>
<path transform="translate(0,0)" fill="rgb(200,245,66)" d="M 1131.28 629.254 C 1141.04 628.335 1152.61 634.895 1157.35 643.386 C 1161.15 650.216 1162.12 658.263 1160.05 665.799 C 1157.08 676.286 1147.74 681.448 1139.03 686.395 C 1136.16 685.855 1132.45 684.926 1129.52 684.256 C 1115.25 682.464 1112.64 682.955 1098.5 686.248 C 1101.77 669.541 1103.3 653.904 1104.06 636.887 C 1114.53 633.456 1120.28 631.152 1131.28 629.254 z"/>
<path transform="translate(0,0)" fill="rgb(200,245,66)" d="M 1195.35 577.705 C 1203.33 579.29 1214.98 581.117 1221.39 586.282 C 1237.41 599.193 1239.63 627.531 1224.44 641.844 C 1221.66 644.458 1217.64 646.487 1214.24 648.193 C 1205.61 651.252 1202.75 651.45 1193.56 652.139 C 1191.27 636.739 1189.49 628.987 1178.81 616.954 C 1189.15 602.318 1192.88 595.855 1195.35 577.705 z"/>
<path transform="translate(0,0)" fill="rgb(200,245,66)" d="M 925.283 463.218 C 940.979 461.71 953.395 465.55 968.799 468.54 C 962.364 483.574 959.061 494.401 955.209 510.29 C 950.779 511.437 945.673 512.827 941.264 514.083 C 930.179 517.002 921.319 516.047 910.494 517.967 C 895.573 496.669 899.083 472.328 925.283 463.218 z"/>
<path transform="translate(0,0)" fill="rgb(200,245,66)" d="M 858.819 483.425 C 862.81 483.045 866.041 483.191 869.992 483.273 C 867.85 504.29 869.42 508.139 877.26 526.507 C 867.138 534.603 865.361 536.817 858.83 548.318 C 851.819 547.52 848.729 546.993 841.424 546.79 C 839.29 546.903 831.993 548.048 830.678 546.605 C 814.18 528.497 817.138 499.484 839.738 487.64 C 846.762 483.959 851.454 484.142 858.819 483.425 z"/>
<path transform="translate(0,0)" fill="rgb(200,245,66)" d="M 985.557 386.323 C 999.249 387.09 1004.27 389.677 1013.56 399.213 C 1012.88 407.222 1012.37 415.246 1012.05 423.278 C 1000.65 426.548 991.243 431.121 984.02 440.107 C 983.116 441.231 976.657 440.157 974.764 439.98 C 971.784 439.871 970.294 439.453 967.497 439.125 C 960.812 438.326 954.155 437.303 947.539 436.055 C 944.975 406.59 954.567 390.193 985.557 386.323 z"/>
<path transform="translate(0,0)" fill="rgb(200,245,66)" d="M 1179.52 483.763 C 1188.62 484.304 1197.79 485.25 1205.59 490.433 C 1229.26 506.149 1234.41 529.995 1216.62 552.485 C 1211.55 555.349 1196.59 552.161 1189.93 551.158 C 1184.82 538.962 1181.38 535.22 1171.59 527.007 C 1179.35 508.872 1180.84 503.393 1179.52 483.763 z"/>
<path transform="translate(0,0)" fill="rgb(200,245,66)" d="M 1109.75 464.33 C 1131.07 459.705 1152.53 479.125 1147.83 500.992 C 1146.28 508.2 1143.61 512.218 1139.6 518.173 L 1125.24 516.199 C 1121.56 515.894 1119.08 515.547 1115.5 515.11 C 1108.87 514.297 1102.25 513.352 1095.66 512.278 C 1091.45 497.478 1087.49 483.024 1082.32 468.524 L 1109.75 464.33 z"/>
<path transform="translate(0,0)" fill="rgb(200,245,66)" d="M 845.435 576.237 C 852.712 575.629 852.234 575.039 853.052 581.473 C 854.864 595.714 860.225 605.376 869.14 616.306 C 863.147 622.586 860.31 626.461 856.873 634.488 C 851.305 647.49 859.531 651.862 843.219 647.429 C 839.864 646.01 835.344 644.224 832.314 642.273 C 815.694 631.575 809.372 607.187 821.114 590.583 C 828.01 580.832 834.521 578.011 845.435 576.237 z"/>
<path transform="translate(0,0)" fill="rgb(200,245,66)" d="M 983.975 725.769 C 1011.99 729.588 1036.52 728.216 1064.31 725.569 C 1060.41 738.958 1056.29 747.032 1049.18 758.579 C 1017.23 800.926 996.402 753.611 983.975 725.769 z"/>
<path transform="translate(0,0)" fill="rgb(200,245,66)" d="M 1114.14 712.131 C 1147.54 708.391 1155.67 763.699 1106.16 765.828 C 1095.11 764.527 1087.95 763.309 1077.01 761.38 C 1081.67 748.654 1088.54 732.01 1091.68 719.105 C 1098.26 716.87 1107.58 713.758 1114.14 712.131 z"/>
<path transform="translate(0,0)" fill="rgb(200,245,66)" d="M 1155.62 404.387 C 1175.28 401.594 1194.24 413.335 1200.72 432.012 C 1203.8 440.87 1202.33 448.92 1201.09 457.931 C 1197.56 457.662 1194.14 457.27 1190.59 457.028 C 1182.59 456.807 1176.05 456.771 1168.01 457.001 C 1157.86 445.211 1154.41 442.38 1139.96 435.85 C 1140.77 422.385 1141.74 420.55 1139.66 406.996 C 1146.3 405.514 1149.02 405.139 1155.62 404.387 z"/>
<path transform="translate(0,0)" fill="rgb(200,245,66)" d="M 922.918 712.221 C 935.821 711.756 944.288 715.951 956.752 719.494 C 962.194 734.424 965.933 745.529 972.477 760.521 C 966.771 761.299 962.607 762.134 957.024 763.16 L 956.16 763.314 C 946.067 764.952 937.976 766.471 927.986 763.111 C 905.979 755.709 898.455 721.908 922.918 712.221 z"/>
<path transform="translate(0,0)" fill="rgb(200,245,66)" d="M 1220.83 678.362 C 1221.7 679.465 1221.72 679.541 1222.08 680.957 C 1228.66 706.749 1208.09 730.073 1183.99 735.847 C 1182.17 736.285 1177.51 737.7 1175.67 736.586 C 1174.83 736.072 1174.77 734.593 1174.68 733.674 C 1173.12 721.396 1171.5 716.201 1166.76 704.858 C 1180.71 695.741 1181.52 693.761 1190.23 679.557 C 1206.85 682.177 1204.85 681.057 1220.83 678.362 z"/>
<path transform="translate(0,0)" fill="rgb(200,245,66)" d="M 824.768 671.715 C 835.553 676.224 844.671 677.712 856.23 678.375 C 863.484 692.175 866.34 695.511 879.321 705.148 C 874.591 717.763 873.984 719.694 873.687 732.911 C 873.112 735.424 871.67 734.756 869.324 734.287 C 838.096 728.041 817.172 704.957 824.768 671.715 z"/>
<path transform="translate(0,0)" fill="rgb(200,245,66)" d="M 894.727 403.265 C 905.964 402.477 907.223 403.147 917.606 405.793 C 915.743 418.028 915.174 421.658 915.227 434.265 C 898.796 438.451 891.733 444.99 879.67 456.775 C 872.418 455.671 865.367 455.97 858.028 455.741 C 858.825 428.578 866.156 410.431 894.727 403.265 z"/>
<path transform="translate(0,0)" fill="rgb(241,243,237)" d="M 1181.41 338.106 C 1187.34 338.133 1188.04 338.477 1193.76 339.375 C 1197.55 364.087 1206.91 372.818 1231.91 367.31 C 1234.43 366.754 1236.34 378.201 1233.35 383.125 C 1228.84 390.548 1229.29 390.792 1220.33 394.126 C 1214.84 393.776 1209.58 387.049 1204.8 383.559 C 1194.88 376.317 1184.68 368.728 1174.84 361.492 C 1170.84 358.553 1162.45 354.472 1166.31 349.242 C 1170.75 342.276 1173.87 340.176 1181.41 338.106 z"/>
<path transform="translate(0,0)" fill="rgb(200,245,66)" d="M 977.593 788.252 C 986.839 786.9 986.045 789.808 993.304 795.679 C 999.929 801.037 1004.34 802.696 1012.23 805.051 C 1011.29 808.859 1010.71 812.013 1009.97 815.845 C 1004.14 816.24 999.004 816.76 993.116 816.935 C 971.142 816.709 962.061 816.353 956.004 793.147 C 963.137 791.277 970.323 789.49 977.593 788.252 z"/>
<path transform="translate(0,0)" fill="rgb(241,243,237)" d="M 1264.52 625.918 C 1269.06 620.602 1273.78 615.208 1278.18 609.794 C 1277.69 637.509 1271.73 667.266 1253.2 688.93 C 1252.82 689.7 1252.43 690.709 1251.51 690.909 C 1252.33 691.44 1246.96 668.509 1245.93 665.645 C 1250.65 659.463 1253.39 656.355 1257.18 649.319 C 1260.38 641.139 1262.91 634.716 1264.52 625.918 z"/>
<path transform="translate(0,0)" fill="rgb(200,245,66)" d="M 1257.18 649.319 C 1256.65 658.497 1252.78 682.914 1253.2 688.93 C 1252.82 689.7 1252.43 690.709 1251.51 690.909 C 1252.33 691.44 1246.96 668.509 1245.93 665.645 C 1250.65 659.463 1253.39 656.355 1257.18 649.319 z"/>
<path transform="translate(0,0)" fill="rgb(241,243,237)" d="M 991.144 354.561 C 1008.79 337.339 1040.06 340.791 1058.31 355.927 C 1054.72 356.977 1051.26 358.067 1047.64 359.066 C 1038.44 364.002 1037.63 363.045 1028.83 369.75 C 1022.8 366.022 1017.57 363.155 1011.63 359.595 C 1004.24 357.419 998.661 356.075 991.144 354.561 z"/>
<path transform="translate(0,0)" fill="rgb(200,245,66)" d="M 1011.63 359.595 C 1018.75 358.517 1039.8 358.769 1047.64 359.066 C 1038.44 364.002 1037.63 363.045 1028.83 369.75 C 1022.8 366.022 1017.57 363.155 1011.63 359.595 z"/>
<path transform="translate(0,0)" fill="rgb(200,245,66)" d="M 1062.38 787.95 C 1073.04 790.757 1084.85 792.121 1095.74 793.449 C 1088.04 806.555 1086.21 808.178 1071.75 813.319 C 1056.69 816.308 1051.38 813.681 1040.08 804.32 C 1051.23 799.278 1054.27 796.88 1062.38 787.95 z"/>
<path transform="translate(0,0)" fill="rgb(241,243,237)" d="M 1316.02 214.857 C 1326.06 216.005 1332.14 222.078 1325.01 231.494 C 1319.08 239.347 1312.15 251.994 1304.27 257.107 C 1284.69 256.408 1292.85 242.303 1300.52 232.096 C 1306.14 224.618 1307.09 219.362 1316.02 214.857 z"/>
<path transform="translate(0,0)" fill="rgb(241,243,237)" d="M 1259.15 521.304 C 1272.07 540.859 1273.36 563.541 1263.36 584.927 C 1261.99 588.425 1261.01 586.977 1259.66 584.199 C 1255.95 576.578 1251.37 571.535 1245.49 565.583 C 1251.39 555.696 1255.94 548.725 1258.61 537.005 C 1259.09 531.684 1259.05 526.631 1259.15 521.304 z"/>
<path transform="translate(0,0)" fill="rgb(200,245,66)" d="M 1245.49 565.583 C 1251.39 555.696 1255.94 548.725 1258.61 537.005 C 1259.92 550.696 1263.12 563.589 1262.49 577.5 C 1262.34 580.711 1262.24 581.96 1263.36 584.927 C 1261.99 588.425 1261.01 586.977 1259.66 584.199 C 1255.95 576.578 1251.37 571.535 1245.49 565.583 z"/>
<path transform="translate(0,0)" fill="rgb(241,243,237)" d="M 1263.64 273.748 C 1293.42 270.875 1262.72 308.435 1255.6 313.298 C 1225.83 318.873 1257.38 279.743 1263.64 273.748 z"/>
<path transform="translate(0,0)" fill="rgb(241,243,237)" d="M 915.205 367.874 C 929.229 354.219 941.83 349.302 961.228 349.441 C 959.96 353.826 959.105 356.624 957.65 360.939 C 942.112 369.238 945.825 366.773 931.866 378.583 C 926.929 377.253 922.025 375.786 917.01 374.778 C 916.211 374.618 910.504 373.428 911.194 372.073 C 911.901 370.688 913.905 368.742 915.205 367.874 z"/>
<path transform="translate(0,0)" fill="rgb(200,245,66)" d="M 915.205 367.874 C 927.275 368.006 943.253 360.927 957.65 360.939 C 942.112 369.238 945.825 366.773 931.866 378.583 C 926.929 377.253 922.025 375.786 917.01 374.778 C 916.211 374.618 910.504 373.428 911.194 372.073 C 911.901 370.688 913.905 368.742 915.205 367.874 z"/>
<path transform="translate(0,0)" fill="rgb(241,243,237)" d="M 1091.81 359.26 C 1088.6 357.895 1083.94 348.456 1084.01 346.632 C 1084.45 346.107 1085.32 346.026 1086 346.013 C 1106.14 345.624 1121.31 356.784 1136.21 368.137 C 1140.76 370.89 1149.61 373.926 1140.85 374.985 C 1134.31 376.221 1133.88 376.635 1127.93 378.842 C 1116.02 365.296 1109.71 362.937 1091.81 359.26 z"/>
<path transform="translate(0,0)" fill="rgb(200,245,66)" d="M 1091.81 359.26 C 1102.74 358.888 1123.42 365.53 1134.64 369.108 L 1136.21 368.137 C 1140.76 370.89 1149.61 373.926 1140.85 374.985 C 1134.31 376.221 1133.88 376.635 1127.93 378.842 C 1116.02 365.296 1109.71 362.937 1091.81 359.26 z"/>
<path transform="translate(0,0)" fill="rgb(241,243,237)" d="M 823.793 441.135 C 823.995 441.246 824.196 441.357 824.398 441.469 C 823.978 439.723 819.672 465.386 819.562 465.949 C 811.236 474.057 798.571 483.218 789.026 489.843 C 788.68 489.461 788.209 489.038 788.483 488.432 C 796.777 470.05 807.831 453.594 823.793 441.135 z"/>
<path transform="translate(0,0)" fill="rgb(241,243,237)" d="M 1231.98 446.781 C 1236.31 450.831 1261.72 485.679 1257.78 488.776 C 1252.54 487.031 1249.18 486.274 1243.8 485.109 C 1237.84 477.21 1236.44 475.373 1229.01 468.283 C 1229.64 462.016 1230.53 452.561 1231.98 446.781 z"/>
<path transform="translate(0,0)" fill="rgb(200,245,66)" d="M 787.291 528.297 C 787.612 528.858 787.935 529.166 788.356 529.645 C 789.212 532.958 789.996 536.625 790.987 539.84 C 794.023 548.958 796.461 552.942 801.588 560.955 C 794.067 569.085 793.44 569.713 787.843 579.153 C 786.608 573.974 785.768 571.236 785.346 565.853 C 783.618 553.241 782.605 540.477 787.291 528.297 z"/>
<path transform="translate(0,0)" fill="rgb(241,243,237)" d="M 787.291 528.297 C 787.612 528.858 787.935 529.166 788.356 529.645 C 789.212 532.958 789.996 536.625 790.987 539.84 C 789.388 547.359 789.265 559.496 785.346 565.853 C 783.618 553.241 782.605 540.477 787.291 528.297 z"/>
<path transform="translate(0,0)" fill="rgb(200,245,66)" d="M 1167.05 762.668 C 1177.99 763.042 1173.82 763.668 1168.75 775.887 C 1165.55 783.61 1150.68 789.865 1142.25 791.814 C 1141.02 791.939 1137.36 792.562 1136.41 791.623 C 1136 789.84 1146.17 785.481 1148.21 784.228 C 1158.28 778.046 1162.06 772.812 1167.05 762.668 z"/>
<path transform="translate(0,0)" fill="rgb(200,245,66)" d="M 875.49 760.918 C 885.983 761.859 882.62 770.238 891.999 776.812 C 894.58 778.622 899.974 783.52 901.454 786.233 C 887.895 784.158 875.393 776.215 875.49 760.918 z"/>
<path transform="translate(0,0)" fill="rgb(241,243,237)" d="M 770.017 627.853 C 770.082 613.2 768.958 611.205 770.472 594.585 L 778.508 612.168 C 774.469 622.88 773.402 624.668 772.011 636.185 C 771.348 633.381 770.739 630.645 770.017 627.853 z"/>
<path transform="translate(0,0)" fill="rgb(222,224,218)" d="M 876.32 372.789 C 882.532 374.257 859.079 385.058 855.471 387.903 C 850.595 391.741 846.257 396.218 842.574 401.213 C 837.772 407.854 838.6 411.208 832.918 414.584 C 832.087 414.358 829.526 413.879 830.364 412.344 C 839.801 395.055 859.682 381.892 876.32 372.789 z"/>
<path transform="translate(0,0)" fill="rgb(241,243,237)" d="M 791.237 642.826 C 794.198 645.954 794.636 649.157 800.384 655.129 C 796.792 662.447 796.592 662.574 794.42 670.691 C 794.321 671.695 794.355 673.703 793.029 673.924 C 789.086 672.171 790.846 647.323 791.237 642.826 z"/>
<path transform="translate(0,0)" fill="rgb(241,243,237)" d="M 1222.16 332.782 C 1235.29 333.498 1231.78 340.54 1223.82 346.617 C 1211.87 348.287 1216.06 338.384 1222.16 332.782 z"/>
<path transform="translate(0,0)" fill="rgb(86,88,89)" d="M 770.017 627.853 C 770.739 630.645 771.348 633.381 772.011 636.185 C 772.263 637.609 772.487 639.035 772.452 640.486 L 771.509 641.401 C 771.574 641.725 771.639 642.048 771.704 642.372 L 771.635 642.424 C 769.465 640.852 769.863 630.561 770.017 627.853 z"/>
<path transform="translate(0,0)" fill="rgb(176,173,176)" d="M 787.291 528.297 C 787.449 528.066 787.912 527.099 788.42 526.963 C 788.508 526.939 788.557 526.996 788.627 527.038 C 788.948 527.964 788.613 528.659 788.356 529.645 C 787.935 529.166 787.612 528.858 787.291 528.297 z"/>
</svg>